<svg xmlns="http://www.w3.org/2000/svg" viewBox="0 0 170.697 65">
  <defs>
    <style>
      .cls-1 {
        fill: #fff;
      }
    </style>
  </defs>
  <g id="Group_145" data-name="Group 145" transform="translate(-2.807)">
    <path id="Path_102" data-name="Path 102" class="cls-1" d="M65.7.9A24.475,24.475,0,0,0,62.763.2H59.7a1.972,1.972,0,0,1-.51.128,13.291,13.291,0,0,0-8.8,21.114c1.4,1.85,2.934,3.636,4.4,5.422,1.531,1.914,3.126,3.827,4.72,5.741a3.538,3.538,0,0,1-.383.51c-2.743,3.381-5.55,6.7-8.229,10.079A13.284,13.284,0,0,0,56.83,64.307c.957.319,1.977.51,3,.765H62.89a1.972,1.972,0,0,1,.51-.128,13.333,13.333,0,0,0,8.8-21.178c-.51-.638-1.021-1.34-1.531-1.977l-4.21-5.1s-1.914-2.3-3.381-4.082L61.3,30.563c-.957-1.148-1.85-2.233-2.743-3.317-1.914-2.3-3.763-4.593-5.677-6.889A10.534,10.534,0,0,1,56.511,3.963a10.729,10.729,0,0,1,15.437,8.42,10.1,10.1,0,0,1-2.3,7.846c-1.084,1.34-1.977,2.424-3,3.636l-.319-4.082a1.6,1.6,0,0,0-3.189.255l.51,7.144a1.6,1.6,0,0,0,1.595,1.467h.128l7.336-.51a1.6,1.6,0,1,0-.255-3.189l-3.317.255c.829-1.021,1.658-2.041,2.552-3.126A13.32,13.32,0,0,0,65.7.9ZM61.232,34.773c1.531,1.85,1.531,1.85,3,3.636L67.419,42.3a39.029,39.029,0,0,1,2.488,3.189,10.59,10.59,0,0,1-7.718,16.84,10.678,10.678,0,0,1-11.227-7.08,10.284,10.284,0,0,1,1.722-10.079c2.679-3.445,5.55-6.762,8.292-10.142A.5.5,0,0,0,61.232,34.773Z" transform="translate(-17.282 -0.072)"/>
    <path id="Path_103" data-name="Path 103" class="cls-1" d="M110.87,25.77c-6.124,0-10.716-5.039-10.716-11.482S104.746,2.87,110.87,2.87A12.112,12.112,0,0,1,119.609,6.7l2.169-2.3A14.438,14.438,0,0,0,110.933,0C102.768,0,96.9,6.443,96.9,14.352c0,7.974,5.868,14.289,13.906,14.289a14.382,14.382,0,0,0,11.1-4.848l-2.041-2.041C117.185,24.3,114.633,25.77,110.87,25.77Z" transform="translate(-35.089)"/>
    <path id="Path_104" data-name="Path 104" class="cls-1" d="M166.821,25.577h-17.1v-9.7h15.118V13.075H149.726V3.57h16.9V.7H146.6V28.448h20.221Z" transform="translate(-53.087 -0.253)"/>
    <path id="Path_105" data-name="Path 105" class="cls-1" d="M196.13.4,183.5,28.339h3.189L190.006,21h15.118l3.253,7.336h3.381L199.064.4Zm-4.912,17.8,6.315-14.161L203.848,18.2Z" transform="translate(-66.449 -0.145)"/>
    <path id="Path_106" data-name="Path 106" class="cls-1" d="M255.648.7V22.962L238.234.7H235.3V28.448h3V5.739l17.924,22.709h2.488V.7Z" transform="translate(-85.207 -0.253)"/>
    <path id="Path_107" data-name="Path 107" class="cls-1" d="M97,59.907h10.589V84.337h3.636V59.907h10.589V57.1H97Z" transform="translate(-35.126 -20.677)"/>
    <path id="Path_108" data-name="Path 108" class="cls-1" d="M142.8,59.907h10.589V84.337h3.636V59.907h10.589V57.1H142.8Z" transform="translate(-51.711 -20.677)"/>
    <path id="Path_109" data-name="Path 109" class="cls-1" d="M195.672,57.1H192.1V84.337h21.369v-2.87h-17.8Z" transform="translate(-69.563 -20.677)"/>
    <path id="Path_110" data-name="Path 110" class="cls-1" d="M239.472,71.963h17.223V69.22H239.472V59.907h19.2V57.1H235.9V84.337h23.027V81.531H239.472Z" transform="translate(-85.424 -20.677)"/>
    <path id="Path_111" data-name="Path 111" class="cls-1" d="M20.6,70.1a6.584,6.584,0,0,0,4.338-6.379c0-4.146-3.508-6.825-8.867-6.825H4.4V84.2H16.52c6,.064,9.951-2.743,9.951-7.463C26.471,72.975,23.855,71.061,20.6,70.1Zm-13.14-10.4h8.292c3.891,0,6.06,1.786,6.06,4.465,0,3.253-2.552,4.912-6.251,4.912h-8.1Zm9.185,21.752H7.462V71.826h8.611c4.784,0,7.272,1.722,7.272,4.72C23.345,79.609,20.794,81.458,16.647,81.458Z" transform="translate(-1.593 -20.605)"/>
    <path id="Path_492" data-name="Path 492" class="cls-1" d="M3.763,39.711V31.993h2.87V31.1H0v.893H2.807v7.718Z" transform="translate(3 -11.262)"/>
    <path id="Path_493" data-name="Path 493" class="cls-1" d="M13.393,35.82H18.3v3.891H19.2V31.1H18.3v3.827H13.393V31.1H12.5v8.611h.893Z" transform="translate(-1.526 -11.262)"/>
    <path id="Path_494" data-name="Path 494" class="cls-1" d="M31.524,38.818H26.357v-3H30.95v-.893H26.357V31.993h5.1V31.1H25.4v8.611h6.124Z" transform="translate(-6.198 -11.262)"/>
  </g>
<head xmlns=""/></svg>